<?xml version="1.0" encoding="utf-8"?>
<!-- Generator: Adobe Illustrator 15.1.0, SVG Export Plug-In . SVG Version: 6.00 Build 0)  -->
<!DOCTYPE svg PUBLIC "-//W3C//DTD SVG 1.1//EN" "http://www.w3.org/Graphics/SVG/1.1/DTD/svg11.dtd">
<svg version="1.1" xmlns="http://www.w3.org/2000/svg" xmlns:xlink="http://www.w3.org/1999/xlink" x="0px" y="0px" width="340px"
	 height="150px" viewBox="0 0 340 150" enable-background="new 0 0 340 150" xml:space="preserve">
<g id="Layer_1">
	<circle fill="none" stroke="#FFFFFF" stroke-miterlimit="10" cx="79.969" cy="66.246" r="11.434"/>
	<radialGradient id="SVGID_1_" cx="79.9688" cy="66.2461" r="11.4338" gradientUnits="userSpaceOnUse">
		<stop  offset="0" style="stop-color:#FFFFFF;stop-opacity:0"/>
		<stop  offset="1" style="stop-color:#FFFFFF"/>
	</radialGradient>
	<circle opacity="0.3" fill="url(#SVGID_1_)" cx="79.969" cy="66.246" r="11.434"/>
	<circle fill="#FFFFFF" cx="79.969" cy="66.246" r="3.16"/>
	<g>
		<g>
			<line fill="none" stroke="#FFFFFF" stroke-miterlimit="10" x1="74.105" y1="75.463" x2="73.054" y2="77.164"/>
			
				<line fill="none" stroke="#FFFFFF" stroke-miterlimit="10" stroke-dasharray="3.8326,3.8326" x1="71.04" y1="80.424" x2="31.755" y2="144.002"/>
			<line fill="none" stroke="#FFFFFF" stroke-miterlimit="10" x1="30.748" y1="145.633" x2="29.696" y2="147.334"/>
		</g>
	</g>
	<line fill="none" stroke="#FFFFFF" stroke-miterlimit="10" x1="3.667" y1="147.334" x2="49.667" y2="147.334"/>
	<line fill="none" stroke="#FFFFFF" stroke-miterlimit="10" x1="98.333" y1="147.334" x2="144.333" y2="147.334"/>
	<line fill="none" stroke="#FFFFFF" stroke-miterlimit="10" x1="193" y1="147.334" x2="239" y2="147.334"/>
	<line fill="none" stroke="#FFFFFF" stroke-miterlimit="10" x1="287.666" y1="147.334" x2="333.666" y2="147.334"/>
	
		<line fill="none" stroke="#FFFFFF" stroke-miterlimit="10" stroke-dasharray="4,4" x1="137.667" y1="34.333" x2="121.333" y2="147.334"/>
	
		<line fill="none" stroke="#FFFFFF" stroke-miterlimit="10" stroke-dasharray="4,4" x1="211.666" y1="43.833" x2="216" y2="147.334"/>
	
		<line fill="none" stroke="#FFFFFF" stroke-miterlimit="10" stroke-dasharray="4,4" x1="278.166" y1="61.334" x2="310.666" y2="147.334"/>
	<circle fill="none" stroke="#FFFFFF" stroke-miterlimit="10" cx="138.809" cy="22.9" r="11.434"/>
	<radialGradient id="SVGID_2_" cx="138.8091" cy="22.8999" r="11.4338" gradientUnits="userSpaceOnUse">
		<stop  offset="0" style="stop-color:#FFFFFF;stop-opacity:0"/>
		<stop  offset="1" style="stop-color:#FFFFFF"/>
	</radialGradient>
	<circle opacity="0.3" fill="url(#SVGID_2_)" cx="138.809" cy="22.9" r="11.434"/>
	<circle fill="#FFFFFF" cx="138.809" cy="22.9" r="3.16"/>
	<circle fill="none" stroke="#FFFFFF" stroke-miterlimit="10" cx="211.666" cy="31.175" r="11.434"/>
	<radialGradient id="SVGID_3_" cx="211.666" cy="31.1753" r="11.4336" gradientUnits="userSpaceOnUse">
		<stop  offset="0" style="stop-color:#FFFFFF;stop-opacity:0"/>
		<stop  offset="1" style="stop-color:#FFFFFF"/>
	</radialGradient>
	<circle opacity="0.3" fill="url(#SVGID_3_)" cx="211.666" cy="31.175" r="11.434"/>
	<circle fill="#FFFFFF" cx="211.666" cy="31.175" r="3.16"/>
	<circle fill="none" stroke="#FFFFFF" stroke-miterlimit="10" cx="274.072" cy="49.4" r="11.434"/>
	<radialGradient id="SVGID_4_" cx="274.0723" cy="49.4004" r="11.4333" gradientUnits="userSpaceOnUse">
		<stop  offset="0" style="stop-color:#FFFFFF;stop-opacity:0"/>
		<stop  offset="1" style="stop-color:#FFFFFF"/>
	</radialGradient>
	<circle opacity="0.3" fill="url(#SVGID_4_)" cx="274.072" cy="49.4" r="11.434"/>
	<circle fill="#FFFFFF" cx="274.072" cy="49.4" r="3.16"/>
</g>
<g id="Layer_2">
</g>
</svg>
